<svg width="166" height="166" viewBox="0 0 166 166" fill="none" xmlns="http://www.w3.org/2000/svg">
<rect x="1" y="1" width="164" height="164" rx="10" fill="white"/>
<rect x="1" y="1" width="164" height="164" rx="10" stroke="#5E4689" stroke-width="2" stroke-dasharray="4 4"/>
<path d="M90 65.4971H90.25V65.2471V64.7529V64.5029H90H83.5113V58V57.75H83.2613H82.7112H82.4612V58V64.5029H76H75.75V64.7529V65.2471V65.4971H76H82.4612V72V72.25H82.7112H83.2613H83.5113V72V65.4971H90Z" fill="#222222" stroke="black" stroke-width="0.5"/>
<path d="M45.952 95.872H41.504L40.768 98H38.416L42.432 86.816H45.04L49.056 98H46.688L45.952 95.872ZM45.344 94.08L43.728 89.408L42.112 94.08H45.344ZM49.9811 93.536C49.9811 92.64 50.1571 91.8453 50.5091 91.152C50.8718 90.4587 51.3625 89.9253 51.9811 89.552C52.5998 89.1787 53.2878 88.992 54.0451 88.992C54.6211 88.992 55.1705 89.12 55.6931 89.376C56.2158 89.6213 56.6318 89.952 56.9411 90.368V86.16H59.2131V98H56.9411V96.688C56.6638 97.1253 56.2745 97.4773 55.7731 97.744C55.2718 98.0107 54.6905 98.144 54.0291 98.144C53.2825 98.144 52.5998 97.952 51.9811 97.568C51.3625 97.184 50.8718 96.6453 50.5091 95.952C50.1571 95.248 49.9811 94.4427 49.9811 93.536ZM56.9571 93.568C56.9571 93.024 56.8505 92.56 56.6371 92.176C56.4238 91.7813 56.1358 91.4827 55.7731 91.28C55.4105 91.0667 55.0211 90.96 54.6051 90.96C54.1891 90.96 53.8051 91.0613 53.4531 91.264C53.1011 91.4667 52.8131 91.7653 52.5891 92.16C52.3758 92.544 52.2691 93.0027 52.2691 93.536C52.2691 94.0693 52.3758 94.5387 52.5891 94.944C52.8131 95.3387 53.1011 95.6427 53.4531 95.856C53.8158 96.0693 54.1998 96.176 54.6051 96.176C55.0211 96.176 55.4105 96.0747 55.7731 95.872C56.1358 95.6587 56.4238 95.36 56.6371 94.976C56.8505 94.5813 56.9571 94.112 56.9571 93.568ZM60.8249 93.536C60.8249 92.64 61.0009 91.8453 61.3529 91.152C61.7155 90.4587 62.2062 89.9253 62.8249 89.552C63.4435 89.1787 64.1315 88.992 64.8889 88.992C65.4649 88.992 66.0142 89.12 66.5369 89.376C67.0595 89.6213 67.4755 89.952 67.7849 90.368V86.16H70.0569V98H67.7849V96.688C67.5075 97.1253 67.1182 97.4773 66.6169 97.744C66.1155 98.0107 65.5342 98.144 64.8729 98.144C64.1262 98.144 63.4435 97.952 62.8249 97.568C62.2062 97.184 61.7155 96.6453 61.3529 95.952C61.0009 95.248 60.8249 94.4427 60.8249 93.536ZM67.8009 93.568C67.8009 93.024 67.6942 92.56 67.4809 92.176C67.2675 91.7813 66.9795 91.4827 66.6169 91.28C66.2542 91.0667 65.8649 90.96 65.4489 90.96C65.0329 90.96 64.6489 91.0613 64.2969 91.264C63.9449 91.4667 63.6569 91.7653 63.4329 92.16C63.2195 92.544 63.1129 93.0027 63.1129 93.536C63.1129 94.0693 63.2195 94.5387 63.4329 94.944C63.6569 95.3387 63.9449 95.6427 64.2969 95.856C64.6595 96.0693 65.0435 96.176 65.4489 96.176C65.8649 96.176 66.2542 96.0747 66.6169 95.872C66.9795 95.6587 67.2675 95.36 67.4809 94.976C67.6942 94.5813 67.8009 94.112 67.8009 93.568ZM77.1931 88.08C76.7985 88.08 76.4678 87.9573 76.2011 87.712C75.9451 87.456 75.8171 87.1413 75.8171 86.768C75.8171 86.3947 75.9451 86.0853 76.2011 85.84C76.4678 85.584 76.7985 85.456 77.1931 85.456C77.5878 85.456 77.9131 85.584 78.1691 85.84C78.4358 86.0853 78.5691 86.3947 78.5691 86.768C78.5691 87.1413 78.4358 87.456 78.1691 87.712C77.9131 87.9573 77.5878 88.08 77.1931 88.08ZM78.2971 89.136V98H76.0571V89.136H78.2971ZM91.5183 89.008C92.6063 89.008 93.4809 89.344 94.1423 90.016C94.8143 90.6773 95.1503 91.6053 95.1503 92.8V98H92.9103V93.104C92.9103 92.4107 92.7343 91.8827 92.3823 91.52C92.0303 91.1467 91.5503 90.96 90.9423 90.96C90.3343 90.96 89.8489 91.1467 89.4863 91.52C89.1343 91.8827 88.9583 92.4107 88.9583 93.104V98H86.7183V93.104C86.7183 92.4107 86.5423 91.8827 86.1903 91.52C85.8383 91.1467 85.3583 90.96 84.7503 90.96C84.1316 90.96 83.6409 91.1467 83.2783 91.52C82.9263 91.8827 82.7503 92.4107 82.7503 93.104V98H80.5103V89.136H82.7503V90.208C83.0383 89.8347 83.4063 89.5413 83.8543 89.328C84.3129 89.1147 84.8143 89.008 85.3583 89.008C86.0516 89.008 86.6703 89.1573 87.2143 89.456C87.7583 89.744 88.1796 90.16 88.4783 90.704C88.7663 90.192 89.1823 89.7813 89.7263 89.472C90.2809 89.1627 90.8783 89.008 91.5183 89.008ZM96.6999 93.536C96.6999 92.64 96.8759 91.8453 97.2279 91.152C97.5905 90.4587 98.0759 89.9253 98.6839 89.552C99.3025 89.1787 99.9905 88.992 100.748 88.992C101.409 88.992 101.985 89.1253 102.476 89.392C102.977 89.6587 103.377 89.9947 103.676 90.4V89.136H105.932V98H103.676V96.704C103.388 97.12 102.988 97.4667 102.476 97.744C101.975 98.0107 101.393 98.144 100.732 98.144C99.9852 98.144 99.3025 97.952 98.6839 97.568C98.0759 97.184 97.5905 96.6453 97.2279 95.952C96.8759 95.248 96.6999 94.4427 96.6999 93.536ZM103.676 93.568C103.676 93.024 103.569 92.56 103.356 92.176C103.143 91.7813 102.855 91.4827 102.492 91.28C102.129 91.0667 101.74 90.96 101.324 90.96C100.908 90.96 100.524 91.0613 100.172 91.264C99.8199 91.4667 99.5319 91.7653 99.3079 92.16C99.0945 92.544 98.9879 93.0027 98.9879 93.536C98.9879 94.0693 99.0945 94.5387 99.3079 94.944C99.5319 95.3387 99.8199 95.6427 100.172 95.856C100.535 96.0693 100.919 96.176 101.324 96.176C101.74 96.176 102.129 96.0747 102.492 95.872C102.855 95.6587 103.143 95.36 103.356 94.976C103.569 94.5813 103.676 94.112 103.676 93.568ZM111.592 88.992C112.253 88.992 112.834 89.1253 113.336 89.392C113.837 89.648 114.232 89.984 114.52 90.4V89.136H116.776V98.064C116.776 98.8853 116.61 99.616 116.28 100.256C115.949 100.907 115.453 101.419 114.792 101.792C114.13 102.176 113.33 102.368 112.392 102.368C111.133 102.368 110.098 102.075 109.288 101.488C108.488 100.901 108.034 100.101 107.928 99.088H110.152C110.269 99.4933 110.52 99.8133 110.904 100.048C111.298 100.293 111.773 100.416 112.328 100.416C112.978 100.416 113.506 100.219 113.912 99.824C114.317 99.44 114.52 98.8533 114.52 98.064V96.688C114.232 97.104 113.832 97.4507 113.32 97.728C112.818 98.0053 112.242 98.144 111.592 98.144C110.845 98.144 110.162 97.952 109.544 97.568C108.925 97.184 108.434 96.6453 108.072 95.952C107.72 95.248 107.544 94.4427 107.544 93.536C107.544 92.64 107.72 91.8453 108.072 91.152C108.434 90.4587 108.92 89.9253 109.528 89.552C110.146 89.1787 110.834 88.992 111.592 88.992ZM114.52 93.568C114.52 93.024 114.413 92.56 114.2 92.176C113.986 91.7813 113.698 91.4827 113.336 91.28C112.973 91.0667 112.584 90.96 112.168 90.96C111.752 90.96 111.368 91.0613 111.016 91.264C110.664 91.4667 110.376 91.7653 110.152 92.16C109.938 92.544 109.832 93.0027 109.832 93.536C109.832 94.0693 109.938 94.5387 110.152 94.944C110.376 95.3387 110.664 95.6427 111.016 95.856C111.378 96.0693 111.762 96.176 112.168 96.176C112.584 96.176 112.973 96.0747 113.336 95.872C113.698 95.6587 113.986 95.36 114.2 94.976C114.413 94.5813 114.52 94.112 114.52 93.568ZM127.203 93.376C127.203 93.696 127.182 93.984 127.139 94.24H120.659C120.713 94.88 120.937 95.3813 121.331 95.744C121.726 96.1067 122.211 96.288 122.787 96.288C123.619 96.288 124.211 95.9307 124.563 95.216H126.979C126.723 96.0693 126.233 96.7733 125.507 97.328C124.782 97.872 123.891 98.144 122.835 98.144C121.982 98.144 121.214 97.9573 120.531 97.584C119.859 97.2 119.331 96.6613 118.947 95.968C118.574 95.2747 118.387 94.4747 118.387 93.568C118.387 92.6507 118.574 91.8453 118.947 91.152C119.321 90.4587 119.843 89.9253 120.515 89.552C121.187 89.1787 121.961 88.992 122.835 88.992C123.678 88.992 124.43 89.1733 125.091 89.536C125.763 89.8987 126.281 90.416 126.643 91.088C127.017 91.7493 127.203 92.512 127.203 93.376ZM124.883 92.736C124.873 92.16 124.665 91.7013 124.259 91.36C123.854 91.008 123.358 90.832 122.771 90.832C122.217 90.832 121.747 91.0027 121.363 91.344C120.99 91.6747 120.761 92.1387 120.675 92.736H124.883Z" fill="#222222"/>
</svg>
