<svg width="33" height="33" viewBox="0 0 33 33" fill="none" xmlns="http://www.w3.org/2000/svg">
<g clip-path="url(#clip0_1798_325)">
<path d="M24.1075 22.937C24.1719 23.0716 24.1803 23.2262 24.1307 23.3669C24.0811 23.5076 23.9777 23.6229 23.8431 23.6873L17.079 26.9271C16.9445 26.9916 16.7898 26.9999 16.6491 26.9503C16.5084 26.9008 16.3931 26.7973 16.3287 26.6628C16.2643 26.5282 16.2559 26.3736 16.3055 26.2329C16.355 26.0922 16.4585 25.9769 16.593 25.9125L23.3572 22.6727C23.4917 22.6082 23.6464 22.5999 23.7871 22.6495C23.9278 22.699 24.043 22.8025 24.1075 22.937ZM22.3059 10.4945C22.8366 11.5952 23.1088 12.8026 23.1017 14.0245C23.0946 15.2465 22.8085 16.4506 22.2651 17.5451C22.1474 17.7775 22.0844 18.0336 22.0808 18.294C22.0773 18.5544 22.1333 18.8122 22.2446 19.0476L22.4876 19.5549C22.6379 19.8689 22.6574 20.2297 22.5418 20.558C22.4261 20.8863 22.1848 21.1553 21.8708 21.3056L16.4595 23.8975C16.1456 24.0478 15.7847 24.0673 15.4564 23.9517C15.1281 23.836 14.8592 23.5946 14.7088 23.2807L14.4658 22.7734C14.3543 22.5411 14.191 22.3374 13.9885 22.178C13.786 22.0185 13.5497 21.9076 13.2977 21.8537C12.109 21.5941 10.9949 21.0677 10.0397 20.3141C9.08449 19.5605 8.31314 18.5996 7.78401 17.504C5.87444 13.5736 7.48693 8.76908 11.3766 6.78963C12.335 6.30191 13.3812 6.01083 14.4537 5.93352C15.5262 5.8562 16.6034 5.99422 17.6218 6.33944C18.6402 6.68465 19.5792 7.2301 20.3837 7.94368C21.1881 8.65725 21.8417 9.52453 22.3059 10.4945ZM21.2913 10.9804C20.8918 10.1458 20.3294 9.39946 19.6371 8.78543C18.9449 8.17139 18.1368 7.70205 17.2604 7.40503C16.384 7.10801 15.4571 6.98931 14.5341 7.05593C13.6112 7.12254 12.7109 7.37312 11.8863 7.79291C8.5413 9.49898 7.15285 13.6296 8.79459 17.0096C9.25005 17.9523 9.91389 18.7791 10.7359 19.4276C11.5579 20.076 12.5166 20.529 13.5394 20.7525C13.9588 20.8429 14.3519 21.0282 14.6884 21.2943C15.0249 21.5604 15.2958 21.9002 15.4804 22.2874L15.7234 22.7947C15.7449 22.8396 15.7833 22.8741 15.8302 22.8906C15.8771 22.9071 15.9287 22.9043 15.9735 22.8828L18.1719 21.8299L16.2478 17.8129L12.4659 16.4798C12.3303 16.4266 12.2206 16.3227 12.1599 16.1902C12.0993 16.0576 12.0925 15.9067 12.1409 15.7693C12.1893 15.6318 12.2892 15.5185 12.4196 15.4532C12.5499 15.388 12.7004 15.3758 12.8395 15.4194L16.3109 16.6423L17.5338 13.171C17.5871 13.0353 17.6909 12.9256 17.8235 12.865C17.956 12.8043 18.1069 12.7975 18.2444 12.8459C18.3818 12.8944 18.4951 12.9943 18.5604 13.1246C18.6257 13.2549 18.6378 13.4055 18.5943 13.5445L17.2625 17.3269L19.1865 21.3439L21.3848 20.291C21.4297 20.2695 21.4642 20.2311 21.4807 20.1842C21.4972 20.1373 21.4944 20.0858 21.473 20.0409L21.23 19.5336C21.045 19.1448 20.9512 18.7189 20.9558 18.2883C20.9603 17.8578 21.0631 17.434 21.2562 17.0491C21.7243 16.1072 21.9708 15.0707 21.9769 14.0189C21.9829 12.967 21.7484 11.9277 21.2913 10.9804Z" fill="black"/>
</g>
<defs>
<clipPath id="clip0_1798_325">
<rect width="24" height="24" fill="white" transform="translate(0 10.3672) rotate(-25.5928)"/>
</clipPath>
</defs>
</svg>
