<svg width="60" height="60" viewBox="0 0 60 60" fill="none" xmlns="http://www.w3.org/2000/svg">
<path d="M52.9359 24.0984C52.0523 23.175 51.1383 22.2234 50.7938 21.3867C50.475 20.6203 50.4562 19.35 50.4375 18.1195C50.4023 15.832 50.3648 13.2398 48.5625 11.4375C46.7602 9.63516 44.168 9.59766 41.8805 9.5625C40.65 9.54375 39.3797 9.525 38.6133 9.20625C37.7789 8.86172 36.825 7.94766 35.9016 7.06406C34.2844 5.51016 32.4469 3.75 30 3.75C27.5531 3.75 25.718 5.51016 24.0984 7.06406C23.175 7.94766 22.2234 8.86172 21.3867 9.20625C20.625 9.525 19.35 9.54375 18.1195 9.5625C15.832 9.59766 13.2398 9.63516 11.4375 11.4375C9.63516 13.2398 9.60938 15.832 9.5625 18.1195C9.54375 19.35 9.525 20.6203 9.20625 21.3867C8.86172 22.2211 7.94766 23.175 7.06406 24.0984C5.51016 25.7156 3.75 27.5531 3.75 30C3.75 32.4469 5.51016 34.282 7.06406 35.9016C7.94766 36.825 8.86172 37.7766 9.20625 38.6133C9.525 39.3797 9.54375 40.65 9.5625 41.8805C9.59766 44.168 9.63516 46.7602 11.4375 48.5625C13.2398 50.3648 15.832 50.4023 18.1195 50.4375C19.35 50.4562 20.6203 50.475 21.3867 50.7938C22.2211 51.1383 23.175 52.0523 24.0984 52.9359C25.7156 54.4898 27.5531 56.25 30 56.25C32.4469 56.25 34.282 54.4898 35.9016 52.9359C36.825 52.0523 37.7766 51.1383 38.6133 50.7938C39.3797 50.475 40.65 50.4562 41.8805 50.4375C44.168 50.4023 46.7602 50.3648 48.5625 48.5625C50.3648 46.7602 50.4023 44.168 50.4375 41.8805C50.4562 40.65 50.475 39.3797 50.7938 38.6133C51.1383 37.7789 52.0523 36.825 52.9359 35.9016C54.4898 34.2844 56.25 32.4469 56.25 30C56.25 27.5531 54.4898 25.718 52.9359 24.0984ZM40.7016 25.7016L27.5766 38.8266C27.4024 39.0009 27.1956 39.1392 26.968 39.2336C26.7404 39.3279 26.4964 39.3765 26.25 39.3765C26.0036 39.3765 25.7596 39.3279 25.532 39.2336C25.3044 39.1392 25.0976 39.0009 24.9234 38.8266L19.2984 33.2016C18.9466 32.8497 18.749 32.3726 18.749 31.875C18.749 31.3774 18.9466 30.9003 19.2984 30.5484C19.6503 30.1966 20.1274 29.999 20.625 29.999C21.1226 29.999 21.5997 30.1966 21.9516 30.5484L26.25 34.8492L38.0484 23.0484C38.2226 22.8742 38.4295 22.736 38.6571 22.6418C38.8847 22.5475 39.1286 22.499 39.375 22.499C39.6214 22.499 39.8653 22.5475 40.0929 22.6418C40.3205 22.736 40.5274 22.8742 40.7016 23.0484C40.8758 23.2226 41.014 23.4295 41.1082 23.6571C41.2025 23.8847 41.251 24.1286 41.251 24.375C41.251 24.6214 41.2025 24.8653 41.1082 25.0929C41.014 25.3205 40.8758 25.5274 40.7016 25.7016Z" fill="#009369"/>
</svg>
